<svg width="43" height="41" viewBox="0 0 43 41" fill="none" xmlns="http://www.w3.org/2000/svg">
<path d="M15.9287 40.0981C16.9593 40.0981 17.7948 39.2626 17.7948 38.232C17.7948 37.2014 16.9593 36.366 15.9287 36.366C14.8981 36.366 14.0626 37.2014 14.0626 38.232C14.0626 39.2626 14.8981 40.0981 15.9287 40.0981Z" stroke="white" stroke-linecap="round" stroke-linejoin="round"/>
<path d="M36.4555 40.0981C37.4861 40.0981 38.3216 39.2626 38.3216 38.232C38.3216 37.2014 37.4861 36.366 36.4555 36.366C35.4249 36.366 34.5895 37.2014 34.5895 38.232C34.5895 39.2626 35.4249 40.0981 36.4555 40.0981Z" stroke="white" stroke-linecap="round" stroke-linejoin="round"/>
<path d="M1 0.9104H8.46426L13.4653 25.897C13.636 26.7562 14.1033 27.5279 14.7856 28.0771C15.468 28.6264 16.3217 28.9182 17.1975 28.9014H35.3356C36.2114 28.9182 37.0651 28.6264 37.7474 28.0771C38.4297 27.5279 38.8971 26.7562 39.0677 25.897L42.0535 10.2407H10.3303" stroke="white" stroke-linecap="round" stroke-linejoin="round"/>
</svg>
