<svg width="135" height="50" viewBox="0 0 135 50" fill="none" xmlns="http://www.w3.org/2000/svg">
<g clip-path="url(#clip0_1_617)">
<path d="M46.8497 41.8508H39.7774C39.3728 41.8508 39.045 42.1787 39.045 42.5832C39.045 42.9877 39.3728 43.3156 39.7774 43.3156H46.1173V43.7288L35.4526 45.7541H14.0748L3.41016 43.7288V43.3156H6.32227C6.32345 43.3156 6.32462 43.3158 6.32569 43.3158C6.32657 43.3158 6.32755 43.3156 6.32843 43.3156H8.9673C8.96818 43.3156 8.96896 43.3158 8.96984 43.3158C8.97121 43.3158 8.97267 43.3156 8.97404 43.3156H17.755C17.7555 43.3156 17.756 43.3157 17.7566 43.3157C17.7571 43.3157 17.7575 43.3156 17.7579 43.3156H20.3746C20.3754 43.3156 20.3762 43.3158 20.377 43.3158C20.3778 43.3158 20.3786 43.3156 20.3794 43.3156H29.148C29.1489 43.3156 29.1497 43.3158 29.1504 43.3158C29.1512 43.3158 29.152 43.3156 29.1527 43.3156H37.0576C37.4622 43.3156 37.79 42.9877 37.79 42.5832C37.79 42.1787 37.4622 41.8508 37.0576 41.8508H32.3334C33.2081 41.2949 34.0244 40.6439 34.7583 39.9105C35.8175 38.8508 36.6872 37.6521 37.3518 36.3562C38.278 36.7335 39.2587 36.925 40.2754 36.925C44.5649 36.925 48.0547 33.4347 48.0547 29.1447C48.0547 24.8551 44.5649 21.3654 40.2754 21.3654C39.8105 21.3654 39.35 21.4075 38.8974 21.4886V21.0696C38.8974 20.1321 38.1347 19.3694 37.1973 19.3694H33.7334C33.3288 19.3694 33.0009 19.6973 33.0009 20.1018C33.0009 20.5063 33.3288 20.8342 33.7334 20.8342H37.1973C37.327 20.8342 37.4326 20.9398 37.4326 21.0696V22.3147H12.0937V21.0696C12.0937 20.9398 12.1992 20.8342 12.329 20.8342H31.0127C31.4172 20.8342 31.7451 20.5063 31.7451 20.1018C31.7451 19.6973 31.4172 19.3694 31.0127 19.3694H12.329C11.3915 19.3694 10.6288 20.1321 10.6288 21.0696V29.9153C10.6288 31.02 10.758 32.1152 11.0098 33.179C9.81769 32.8235 8.39718 33.1028 7.10108 33.9896C6.7672 34.218 6.68165 34.6738 6.91007 35.0077C7.13858 35.3415 7.59444 35.4269 7.92823 35.1986C8.77765 34.6175 9.66906 34.3893 10.4062 34.537L7.73839 38.5284C7.51359 38.8647 7.60402 39.3196 7.94025 39.5443C8.06525 39.6279 8.20675 39.6679 8.3466 39.6679C8.58302 39.6679 8.81505 39.5537 8.95617 39.3425L11.6247 35.3497C11.9015 35.7605 12.0531 36.2981 12.0603 36.9247C12.0603 36.925 12.0603 36.9252 12.0603 36.9255C12.0603 36.9268 12.0604 36.9282 12.0604 36.9296C12.0702 37.8971 11.7321 38.9437 11.1086 39.8765C10.7531 40.4085 10.3328 40.8646 9.85685 41.2342C9.52687 41.4926 9.18019 41.6993 8.82501 41.8508H6.51124C6.48478 41.8349 6.45841 41.819 6.43214 41.8012C5.2127 40.9868 5.13555 38.8804 6.25645 37.0059C6.46407 36.6588 6.35099 36.209 6.00382 36.0013C5.65684 35.7939 5.20694 35.9068 4.99932 36.2541C4.28477 37.4489 3.93575 38.7802 4.01661 40.0027C4.0625 40.6964 4.24405 41.3215 4.54288 41.8507H2.67774C2.27315 41.8507 1.94531 42.1786 1.94531 42.5831V44.335C1.94531 44.6869 2.19551 44.9889 2.54111 45.0546L13.3116 47.1V49.2676C13.3116 49.6721 13.6395 50 14.0441 50H35.4824C35.887 50 36.2148 49.6721 36.2148 49.2676V47.1002L46.9863 45.0546C47.3319 44.9889 47.5821 44.6868 47.5821 44.335V42.5831C47.5821 42.1787 47.2542 41.8508 46.8497 41.8508ZM38.8973 29.9151V26.4499H38.8974C39.3218 26.232 39.7912 26.1164 40.2754 26.1164C41.9452 26.1164 43.3037 27.4749 43.3037 29.1447C43.3037 30.8145 41.9452 32.173 40.2754 32.173C39.7432 32.173 39.231 32.0348 38.776 31.7743C38.8559 31.1628 38.8973 30.5422 38.8973 29.9151ZM38.4979 33.272C39.0548 33.5125 39.6563 33.638 40.2754 33.638C42.7529 33.638 44.7685 31.6223 44.7685 29.1448C44.7685 26.6672 42.7529 24.6516 40.2754 24.6516C39.8027 24.6516 39.339 24.7255 38.8974 24.8678V23.0546C38.8974 23.0521 38.8978 23.0497 38.8978 23.0471C38.8978 23.0446 38.8974 23.0421 38.8974 23.0396V22.9821C39.347 22.8817 39.8086 22.8302 40.2755 22.8302C43.7572 22.8302 46.5899 25.6629 46.5899 29.1447C46.5899 32.627 43.7572 35.4601 40.2755 35.4601C39.4679 35.4601 38.6895 35.3096 37.9529 35.017C38.1723 34.4491 38.3539 33.8663 38.4979 33.272ZM12.0937 23.7795H37.4326V26.034C37.4326 26.0348 37.4326 26.0357 37.4326 26.0365V29.9152C37.4326 33.2994 36.1149 36.4813 33.7225 38.8747C32.397 40.1993 30.7736 41.2259 29.022 41.8508H20.5063C20.2701 41.7667 20.035 41.6762 19.8029 41.5773C20.3403 40.7324 20.5451 39.7924 20.3682 38.8965C20.368 38.8953 20.3679 38.8942 20.3677 38.893C20.3674 38.8917 20.3669 38.8903 20.3667 38.8889C20.1332 37.7234 19.3097 36.7644 18.0472 36.1884C16.8646 35.6489 15.4192 35.5092 13.9771 35.7956C13.8459 35.8216 13.7159 35.8514 13.587 35.8842C12.6094 34.0566 12.0937 32.0054 12.0937 29.9153V23.7795V23.7795ZM12.3267 40.6904C13.0047 39.676 13.4139 38.5384 13.5053 37.436C13.751 37.3532 14.0037 37.2838 14.2626 37.2322C16.1262 36.8623 17.9231 37.423 18.6396 38.4898L13.9325 39.4255C13.5358 39.5044 13.2781 39.8898 13.3569 40.2866C13.4262 40.6351 13.7322 40.8763 14.0745 40.8763C14.1218 40.8763 14.1699 40.8718 14.2181 40.8621L18.9281 39.9258C18.8341 40.4076 18.5656 40.8906 18.1354 41.3344C18.1342 41.3355 18.1331 41.3368 18.1321 41.338C17.9527 41.522 17.7498 41.6934 17.5289 41.8506H11.3706C11.7217 41.5044 12.0419 41.1166 12.3267 40.6904ZM34.75 48.5353H14.7764V47.2189H34.75V48.5353Z" fill="#FF4B32"/>
<path d="M26.6696 14.6436C26.6563 14.652 26.6455 14.6587 26.6377 14.6637C26.645 14.659 26.6558 14.6522 26.6696 14.6436Z" fill="#FF4B32"/>
<path d="M26.6382 14.6636C26.6181 14.6762 26.6206 14.6746 26.6382 14.6636V14.6636Z" fill="#FF4B32"/>
<path d="M28.2554 7.99494C29.2418 7.05744 29.8098 5.75831 29.8098 4.36378C29.8098 2.62794 28.9311 1.03877 27.4592 0.1126C27.1169 -0.10283 26.6645 0.000100211 26.4493 0.342484C26.2338 0.684867 26.3368 1.13702 26.6792 1.35245C27.7223 2.0088 28.3451 3.13448 28.3451 4.36368C28.3451 5.59288 27.7223 6.71857 26.6792 7.37492C26.2314 7.65578 26.2314 8.33293 26.6792 8.61477C27.7223 9.27111 28.3451 10.3968 28.3451 11.626C28.3452 12.8553 27.7224 13.9811 26.6793 14.6374C26.6754 14.6398 26.673 14.6413 26.6697 14.6435C26.6728 14.6415 26.6758 14.6397 26.6793 14.6375C26.3369 14.853 26.2339 15.3051 26.4494 15.6475C26.5885 15.8688 26.8265 15.99 27.0699 15.99C27.2032 15.99 27.3381 15.9536 27.4592 15.8774C28.9311 14.9513 29.8098 13.362 29.8098 11.6263C29.8098 10.2316 29.2417 8.93244 28.2554 7.99494ZM27.0613 14.397C27.0786 14.3862 27.0807 14.3848 27.0613 14.397V14.397ZM26.9659 14.4572C26.9819 14.447 26.9967 14.4377 27.0101 14.4293C26.9973 14.4373 26.983 14.4464 26.9659 14.4572Z" fill="#FF4B32"/>
<path d="M32.6138 7.37508C32.2715 7.15965 31.8191 7.26248 31.6038 7.60496C31.3884 7.94724 31.4913 8.39949 31.8337 8.61492C32.8768 9.27127 33.4995 10.3971 33.4995 11.6263C33.4996 12.8553 32.8769 13.981 31.8338 14.6374C31.4914 14.8528 31.3885 15.305 31.6039 15.6474C31.7431 15.8686 31.9811 15.9898 32.2244 15.9898C32.3577 15.9898 32.4927 15.9534 32.6138 15.8772C34.0856 14.9512 34.9643 13.3619 34.9643 11.6262C34.9643 9.89041 34.0856 8.30115 32.6138 7.37508Z" fill="#FF4B32"/>
<path d="M21.8828 7.37505C21.5405 7.15962 21.0881 7.26255 20.8729 7.60494C20.6574 7.94732 20.7604 8.39947 21.1027 8.6149C22.1459 9.27125 22.7687 10.3969 22.7687 11.6261C22.7688 12.8553 22.146 13.9811 21.1028 14.6375C20.7605 14.8529 20.6575 15.305 20.873 15.6474C21.0121 15.8687 21.2501 15.9899 21.4935 15.9899C21.6268 15.9899 21.7617 15.9535 21.8828 15.8773C23.3547 14.9512 24.2334 13.362 24.2334 11.6262C24.2334 9.89039 23.3547 8.30123 21.8828 7.37505Z" fill="#FF4B32"/>
</g>
<path d="M75.528 39.536C75.336 39.696 74.976 39.912 74.448 40.184C73.936 40.456 73.304 40.696 72.552 40.904C71.8 41.112 70.968 41.208 70.056 41.192C68.664 41.16 67.416 40.912 66.312 40.448C65.224 39.968 64.296 39.32 63.528 38.504C62.776 37.688 62.2 36.752 61.8 35.696C61.4 34.64 61.2 33.512 61.2 32.312C61.2 30.968 61.4 29.736 61.8 28.616C62.216 27.496 62.8 26.528 63.552 25.712C64.32 24.896 65.232 24.264 66.288 23.816C67.344 23.368 68.512 23.144 69.792 23.144C70.976 23.144 72.024 23.304 72.936 23.624C73.848 23.944 74.592 24.288 75.168 24.656L73.8 27.944C73.4 27.64 72.864 27.328 72.192 27.008C71.536 26.672 70.776 26.504 69.912 26.504C69.24 26.504 68.592 26.648 67.968 26.936C67.36 27.208 66.816 27.6 66.336 28.112C65.872 28.624 65.504 29.224 65.232 29.912C64.96 30.584 64.824 31.32 64.824 32.12C64.824 32.968 64.944 33.744 65.184 34.448C65.44 35.152 65.8 35.76 66.264 36.272C66.728 36.768 67.28 37.152 67.92 37.424C68.576 37.696 69.312 37.832 70.128 37.832C71.072 37.832 71.88 37.68 72.552 37.376C73.224 37.072 73.736 36.752 74.088 36.416L75.528 39.536ZM77.6464 35.624C77.6464 34.552 77.8944 33.592 78.3904 32.744C78.9024 31.896 79.6144 31.232 80.5264 30.752C81.4384 30.256 82.4864 30.008 83.6704 30.008C84.8704 30.008 85.9104 30.256 86.7904 30.752C87.6704 31.232 88.3424 31.896 88.8064 32.744C89.2864 33.592 89.5264 34.552 89.5264 35.624C89.5264 36.696 89.2864 37.664 88.8064 38.528C88.3424 39.376 87.6704 40.048 86.7904 40.544C85.9104 41.04 84.8544 41.288 83.6224 41.288C82.4704 41.288 81.4384 41.064 80.5264 40.616C79.6304 40.168 78.9264 39.52 78.4144 38.672C77.9024 37.824 77.6464 36.808 77.6464 35.624ZM81.0304 35.648C81.0304 36.192 81.1424 36.688 81.3664 37.136C81.5904 37.568 81.8944 37.912 82.2784 38.168C82.6624 38.424 83.0944 38.552 83.5744 38.552C84.1024 38.552 84.5584 38.424 84.9424 38.168C85.3264 37.912 85.6224 37.568 85.8304 37.136C86.0384 36.688 86.1424 36.192 86.1424 35.648C86.1424 35.088 86.0384 34.592 85.8304 34.16C85.6224 33.728 85.3264 33.384 84.9424 33.128C84.5584 32.872 84.1024 32.744 83.5744 32.744C83.0944 32.744 82.6624 32.872 82.2784 33.128C81.8944 33.384 81.5904 33.728 81.3664 34.16C81.1424 34.592 81.0304 35.088 81.0304 35.648ZM93.1813 41V33.44H91.4053V30.464H93.1813V26.816C93.1813 25.44 93.5733 24.32 94.3573 23.456C95.1573 22.576 96.3093 22.136 97.8133 22.136C98.2613 22.136 98.7573 22.208 99.3013 22.352C99.8613 22.48 100.349 22.696 100.765 23L99.3493 25.424C99.1893 25.216 98.9973 25.08 98.7733 25.016C98.5653 24.936 98.3653 24.896 98.1733 24.896C97.6933 24.896 97.3013 25.056 96.9973 25.376C96.6933 25.696 96.5413 26.208 96.5413 26.912V30.464H99.7093V33.44H96.5413V41H93.1813ZM100.933 41V33.44H99.1573V30.464H100.933V26.816C100.933 25.44 101.325 24.32 102.109 23.456C102.909 22.576 104.061 22.136 105.565 22.136C106.013 22.136 106.509 22.208 107.053 22.352C107.613 22.48 108.101 22.696 108.517 23L107.101 25.424C106.941 25.216 106.749 25.08 106.525 25.016C106.317 24.936 106.117 24.896 105.925 24.896C105.445 24.896 105.053 25.056 104.749 25.376C104.445 25.696 104.293 26.208 104.293 26.912V30.464H107.461V33.44H104.293V41H100.933ZM115.286 41.288C114.006 41.288 112.918 41.048 112.022 40.568C111.142 40.088 110.47 39.424 110.006 38.576C109.542 37.728 109.31 36.752 109.31 35.648C109.31 34.592 109.582 33.64 110.126 32.792C110.67 31.944 111.398 31.272 112.31 30.776C113.222 30.264 114.238 30.008 115.358 30.008C116.862 30.008 118.094 30.448 119.054 31.328C120.03 32.192 120.662 33.448 120.95 35.096L112.79 37.688L112.046 35.864L117.95 33.872L117.254 34.184C117.126 33.768 116.894 33.408 116.558 33.104C116.238 32.784 115.75 32.624 115.094 32.624C114.598 32.624 114.158 32.744 113.774 32.984C113.406 33.208 113.118 33.536 112.91 33.968C112.718 34.384 112.622 34.88 112.622 35.456C112.622 36.112 112.742 36.664 112.982 37.112C113.222 37.544 113.55 37.872 113.966 38.096C114.382 38.32 114.846 38.432 115.358 38.432C115.726 38.432 116.078 38.368 116.414 38.24C116.766 38.112 117.11 37.944 117.446 37.736L118.934 40.232C118.374 40.552 117.766 40.808 117.11 41C116.47 41.192 115.862 41.288 115.286 41.288ZM128.552 41.288C127.272 41.288 126.184 41.048 125.288 40.568C124.408 40.088 123.736 39.424 123.272 38.576C122.808 37.728 122.576 36.752 122.576 35.648C122.576 34.592 122.848 33.64 123.392 32.792C123.936 31.944 124.664 31.272 125.576 30.776C126.488 30.264 127.504 30.008 128.624 30.008C130.128 30.008 131.36 30.448 132.32 31.328C133.296 32.192 133.928 33.448 134.216 35.096L126.056 37.688L125.312 35.864L131.216 33.872L130.52 34.184C130.392 33.768 130.16 33.408 129.824 33.104C129.504 32.784 129.016 32.624 128.36 32.624C127.864 32.624 127.424 32.744 127.04 32.984C126.672 33.208 126.384 33.536 126.176 33.968C125.984 34.384 125.888 34.88 125.888 35.456C125.888 36.112 126.008 36.664 126.248 37.112C126.488 37.544 126.816 37.872 127.232 38.096C127.648 38.32 128.112 38.432 128.624 38.432C128.992 38.432 129.344 38.368 129.68 38.24C130.032 38.112 130.376 37.944 130.712 37.736L132.2 40.232C131.64 40.552 131.032 40.808 130.376 41C129.736 41.192 129.128 41.288 128.552 41.288Z" fill="#FF4B32"/>
<defs>
<clipPath id="clip0_1_617">
<rect width="50" height="50" fill="white"/>
</clipPath>
</defs>
</svg>
